<!DOCTYPE svg PUBLIC "-//W3C//DTD SVG 20010904//EN" "http://www.w3.org/TR/2001/REC-SVG-20010904/DTD/svg10.dtd">
<svg version="1.0" xmlns="http://www.w3.org/2000/svg" width="512px" height="160px" viewBox="0 0 5120 1600" preserveAspectRatio="xMidYMid meet">
<g id="layer101" fill="#0574b7" stroke="none">
<path d="M410 1519 c-156 -44 -285 -81 -286 -82 -4 -3 -124 -1360 -124 -1395 l0 -32 716 0 717 0 -7 95 -6 95 1850 0 1850 0 0 605 0 605 -1905 0 c-1687 0 -1905 2 -1905 15 0 8 -2 15 -4 15 -3 0 -135 36 -294 80 -159 44 -295 80 -303 79 -8 0 -142 -36 -299 -80z"/>
</g>
<g id="layer102" fill="#2ca8db" stroke="none">
<path d="M711 1313 l2 -87 -104 -28 c-57 -16 -127 -35 -155 -43 l-52 -15 -6 -67 c-4 -38 -9 -92 -12 -120 l-6 -53 81 0 81 0 0 48 c0 26 4 53 9 60 9 15 130 52 168 52 13 0 23 -5 23 -11 0 -6 -7 -9 -15 -5 -13 5 -15 -11 -15 -105 l0 -109 25 4 c14 3 23 1 20 -5 -4 -5 -52 -9 -109 -9 l-102 0 -2 -37 c-1 -21 -5 -55 -8 -75 l-6 -38 114 -1 c80 0 106 -3 90 -10 -22 -8 -23 -14 -21 -76 l3 -68 -183 -2 c-101 -1 -184 -3 -186 -5 -1 -2 -5 -36 -8 -75 l-6 -73 212 -1 c117 -1 202 -4 189 -6 -21 -4 -23 -9 -20 -66 l3 -62 252 -3 251 -2 -4 37 c-2 21 -11 117 -20 213 -8 96 -24 274 -35 395 -11 121 -24 264 -29 318 -4 54 -10 100 -12 101 -2 2 -88 26 -193 55 -104 29 -196 54 -203 57 -10 3 -13 -15 -11 -83z"/>
</g>
<g id="layer103" fill="#f9fdfe" stroke="none">
<path d="M410 1519 c-156 -44 -285 -81 -286 -82 -4 -3 -124 -1360 -124 -1395 l0 -32 716 0 717 0 -6 78 c-7 91 -85 961 -91 1012 -3 19 -10 103 -17 185 -7 83 -13 151 -14 152 -3 5 -583 163 -596 162 -8 0 -142 -36 -299 -80z m560 -87 l245 -68 33 -365 c18 -200 42 -480 55 -622 l22 -257 -606 0 c-333 0 -608 2 -610 4 -2 3 10 161 27 353 17 191 35 386 38 433 4 47 11 123 16 170 5 47 12 128 15 180 4 52 9 97 12 100 5 6 473 138 493 139 8 0 125 -30 260 -67z"/>
<path d="M610 1199 c-58 -16 -128 -36 -156 -44 l-52 -15 -6 -67 c-4 -38 -9 -92 -12 -120 l-6 -53 81 0 81 0 0 49 c0 30 6 55 15 64 8 8 47 23 86 32 70 17 76 17 146 0 41 -10 80 -23 88 -29 8 -7 16 -45 20 -103 l7 -93 -179 0 -179 0 -2 -37 c-1 -21 -5 -55 -8 -75 l-6 -38 194 -2 193 -3 7 -70 c4 -38 6 -71 4 -72 -2 -2 -133 -6 -292 -9 -159 -3 -290 -6 -290 -7 -1 -1 -4 -35 -7 -74 l-6 -73 386 0 386 0 -7 58 c-5 51 -36 399 -51 572 -3 36 -8 84 -11 107 l-5 42 -67 20 c-56 17 -143 41 -230 65 -10 2 -64 -9 -122 -25z"/>
<path d="M2552 1091 c-66 -23 -114 -68 -143 -135 -18 -41 -22 -70 -22 -144 0 -83 3 -98 32 -156 38 -77 84 -112 167 -128 68 -12 121 -2 175 35 156 105 141 437 -23 515 -65 31 -124 35 -186 13z m155 -115 c12 -15 27 -45 34 -69 15 -56 7 -183 -14 -224 -32 -61 -111 -81 -161 -42 -44 35 -56 69 -57 172 -1 104 11 139 58 177 39 30 108 23 140 -14z"/>
<path d="M4188 1096 c-120 -32 -178 -125 -178 -287 0 -152 68 -255 185 -279 174 -36 295 81 295 285 0 148 -60 247 -169 279 -64 19 -71 19 -133 2z m131 -112 c38 -32 51 -77 51 -177 0 -122 -32 -175 -113 -184 -36 -4 -48 -1 -74 21 -44 37 -56 82 -51 192 3 75 8 99 24 121 43 58 113 70 163 27z"/>
<path d="M4595 1085 c-14 -13 -25 -29 -25 -35 0 -22 22 -51 46 -60 72 -28 119 77 48 108 -35 17 -42 15 -69 -13z"/>
<path d="M1987 1093 c-4 -3 -7 -132 -7 -285 l0 -278 190 0 190 0 0 45 0 45 -130 0 -130 0 0 240 0 240 -53 0 c-30 0 -57 -3 -60 -7z"/>
<path d="M2950 814 l0 -285 148 3 c165 3 209 16 243 72 35 58 18 160 -32 187 -21 11 -21 11 8 29 44 27 66 88 52 148 -22 101 -90 132 -291 132 l-128 0 0 -286z m258 190 c25 -7 52 -51 52 -84 0 -11 -11 -32 -25 -45 -21 -22 -33 -25 -95 -25 l-70 0 0 80 0 80 58 0 c31 0 67 -3 80 -6z m-9 -245 c21 -7 33 -20 38 -37 19 -71 -12 -102 -103 -102 l-64 0 0 75 0 75 49 0 c26 0 62 -5 80 -11z"/>
<path d="M3460 815 l0 -285 60 0 60 0 0 115 0 115 115 0 115 0 0 -115 0 -115 60 0 60 0 -2 283 -3 282 -57 3 -58 3 0 -126 0 -125 -115 0 -115 0 0 125 0 125 -60 0 -60 0 0 -285z"/>
<path d="M4586 843 c-3 -42 -6 -129 -6 -195 l0 -118 59 0 58 0 -4 173 c-5 225 -3 217 -57 217 l-43 0 -7 -77z"/>
</g>


</svg>