<!DOCTYPE svg PUBLIC "-//W3C//DTD SVG 20010904//EN" "http://www.w3.org/TR/2001/REC-SVG-20010904/DTD/svg10.dtd">
<svg version="1.0" xmlns="http://www.w3.org/2000/svg" width="512px" height="160px" viewBox="0 0 5120 1600" preserveAspectRatio="xMidYMid meet">
<g id="layer101" fill="#e65121" stroke="none">
 <path d="M410 1519 c-156 -44 -285 -81 -286 -82 -4 -3 -124 -1360 -124 -1395 l0 -32 716 0 717 0 -7 95 -6 95 1850 0 1850 0 0 605 0 605 -1905 0 c-1687 0 -1905 2 -1905 15 0 8 -2 15 -4 15 -3 0 -135 36 -294 80 -159 44 -295 80 -303 79 -8 0 -142 -36 -299 -80z"/>
 </g>
<g id="layer102" fill="#fdfcfa" stroke="none">
 <path d="M410 1519 c-156 -44 -285 -81 -286 -82 -4 -3 -124 -1360 -124 -1395 l0 -32 716 0 717 0 -6 73 c-3 39 -21 248 -41 462 -20 215 -40 446 -46 515 -6 69 -12 139 -14 155 -3 17 -8 74 -11 128 -4 53 -9 97 -10 97 -2 0 -134 36 -293 80 -159 44 -295 80 -303 79 -8 0 -142 -36 -299 -80z m525 -79 c121 -34 234 -65 251 -71 l31 -10 7 -94 c4 -52 9 -104 11 -117 2 -13 6 -59 9 -103 4 -44 22 -251 41 -460 18 -209 35 -400 37 -425 l3 -45 -605 -3 c-399 -1 -606 1 -610 8 -3 6 -3 43 1 83 4 39 15 158 24 262 9 105 18 208 20 230 6 63 27 302 47 528 l11 137 56 17 c76 22 435 122 441 122 3 1 104 -26 225 -59z"/>
 <path d="M595 1203 c-66 -18 -136 -38 -156 -43 -37 -10 -37 -10 -43 -78 -4 -37 -9 -91 -13 -120 l-5 -53 78 3 79 3 3 57 c3 54 5 58 30 64 15 3 51 13 81 21 57 16 84 14 173 -11 63 -19 63 -17 73 -138 l7 -78 -266 0 c-239 0 -266 -2 -266 -16 0 -25 -29 -353 -36 -401 l-5 -43 386 0 387 0 -7 68 c-4 37 -9 70 -12 75 -2 4 -135 7 -294 7 l-290 0 7 73 c3 39 9 75 11 80 2 4 128 7 279 7 l276 0 -7 68 c-3 37 -10 112 -15 167 -5 55 -12 130 -15 167 l-7 68 -36 10 c-20 5 -91 25 -157 43 l-120 33 -120 -33z"/>
 <path d="M2595 1100 c-112 -13 -181 -85 -204 -217 -21 -114 11 -234 80 -301 83 -81 246 -76 326 10 48 51 68 116 68 224 0 92 -2 105 -30 159 -49 96 -129 137 -240 125z m112 -124 c12 -15 27 -45 34 -69 15 -56 7 -183 -14 -224 -29 -54 -99 -78 -150 -51 -52 27 -66 65 -68 181 -2 102 10 139 58 177 39 30 108 23 140 -14z"/>
 <path d="M1987 1093 c-9 -8 -9 -510 -1 -541 6 -22 7 -22 188 -20 l181 3 0 40 0 40 -127 3 -128 3 0 239 0 240 -53 0 c-30 0 -57 -3 -60 -7z"/>
 <path d="M2957 1093 c-4 -3 -7 -132 -7 -286 l0 -279 148 4 c165 4 217 21 247 78 31 59 11 155 -37 181 -20 11 -20 12 10 30 44 29 65 87 51 147 -22 100 -91 132 -284 132 -67 0 -125 -3 -128 -7z m285 -113 c26 -32 23 -76 -7 -105 -21 -22 -33 -25 -95 -25 l-70 0 0 81 0 82 77 -5 c64 -4 80 -9 95 -28z m-45 -221 c35 -13 43 -25 43 -71 0 -51 -27 -68 -107 -68 l-63 0 0 75 0 75 49 0 c27 0 62 -5 78 -11z"/>
 <path d="M3460 815 l0 -285 60 0 60 0 0 115 0 115 115 0 115 0 0 -115 0 -115 54 0 c30 0 56 4 58 10 2 5 2 134 0 285 l-3 275 -54 0 -55 0 0 -125 0 -125 -115 0 -115 0 0 125 0 125 -60 0 -60 0 0 -285z"/>
 <path d="M4144 1081 c-86 -39 -134 -136 -134 -272 0 -149 67 -252 181 -279 167 -40 299 82 299 276 0 137 -42 225 -129 271 -56 29 -156 31 -217 4z m182 -102 c32 -30 44 -77 44 -172 0 -122 -32 -175 -113 -184 -36 -4 -48 -1 -74 21 -44 37 -56 82 -51 192 4 101 19 135 69 162 33 18 96 8 125 -19z"/>
 <path d="M4585 1076 c-28 -43 17 -105 65 -88 28 9 50 35 50 57 0 53 -86 76 -115 31z"/>
 <path d="M4587 838 c-4 -46 -7 -134 -7 -195 l0 -113 59 0 58 0 -4 123 c-2 67 -6 155 -9 195 l-6 72 -42 0 -43 0 -6 -82z"/>
 </g>

</svg>